inDegrees=no
num_controls=7
num_derivatives=13
num_iterations=129
num_multipliers=7
num_parameters=0
num_slacks=7
num_states=26
objective=4.385122
objective_accelerations=0.103203
objective_balance=0.016349
objective_effort=0.220999
objective_height=3.994445
objective_ligament=0.050127
solver_duration=1296.514438
status=Solve_Succeeded
success=true
DataType=double
version=3
OpenSimVersion=4.4-2022-07-23-0e9fedc
endheader
time	/jointset/ground_pelvis/pelvis_tilt/value	/jointset/ground_pelvis/pelvis_tx/value	/jointset/ground_pelvis/pelvis_ty/value	/jointset/hip_l/hip_flexion_l/value	/jointset/hip_l/hip_adduction_l/value	/jointset/hip_l/hip_rotation_l/value	/jointset/back/lumbar_extension/value	/jointset/patellofemoral_l/patellar_flexion_l/value	/jointset/knee_l/knee_flexion_l/value	/jointset/knee_l/knee_adduction_l/value	/jointset/knee_l/knee_rotation_l/value	/jointset/ankle_l/ankle_angle_l/value	/jointset/subtalar_l/subtalar_angle_l/value	/jointset/ground_pelvis/pelvis_tilt/speed	/jointset/ground_pelvis/pelvis_tx/speed	/jointset/ground_pelvis/pelvis_ty/speed	/jointset/hip_l/hip_flexion_l/speed	/jointset/hip_l/hip_adduction_l/speed	/jointset/hip_l/hip_rotation_l/speed	/jointset/back/lumbar_extension/speed	/jointset/patellofemoral_l/patellar_flexion_l/speed	/jointset/knee_l/knee_flexion_l/speed	/jointset/knee_l/knee_adduction_l/speed	/jointset/knee_l/knee_rotation_l/speed	/jointset/ankle_l/ankle_angle_l/speed	/jointset/subtalar_l/subtalar_angle_l/speed	/forceset/tau_hip_flexion_l	/forceset/tau_hip_adduction_l	/forceset/tau_hip_rotation_l	/forceset/tau_knee_flexion_l	/forceset/tau_ankle_angle_l	/forceset/tau_subtalar_angle_l	/forceset/tau_lumbar_extension	lambda_cid13_p0	lambda_cid13_p1	lambda_cid13_p2	lambda_cid13_p3	lambda_cid13_p4	lambda_cid13_p5	lambda_cid14_p0	/jointset/ground_pelvis/pelvis_tilt/accel	/jointset/ground_pelvis/pelvis_tx/accel	/jointset/ground_pelvis/pelvis_ty/accel	/jointset/hip_l/hip_flexion_l/accel	/jointset/hip_l/hip_adduction_l/accel	/jointset/hip_l/hip_rotation_l/accel	/jointset/back/lumbar_extension/accel	/jointset/patellofemoral_l/patellar_flexion_l/accel	/jointset/knee_l/knee_flexion_l/accel	/jointset/knee_l/knee_adduction_l/accel	/jointset/knee_l/knee_rotation_l/accel	/jointset/ankle_l/ankle_angle_l/accel	/jointset/subtalar_l/subtalar_angle_l/accel	gamma_cid13_p0	gamma_cid13_p1	gamma_cid13_p2	gamma_cid13_p3	gamma_cid13_p4	gamma_cid13_p5	gamma_cid14_p0
1	0.1427156714742392	0.001607110403644872	0.8870874541549627	0.4108235046889926	-0.3400875054110623	-0.1478455544419497	-0.9599310481423123	0.6418566609715132	0.6418566609716748	-0.1745207668025041	-0.1745302922882875	0.1283367450693227	-0.004949883993708326	0.1242106264047198	0.03395314903542759	0.03978281736436529	-0.2924226863437562	0.01188443663717997	-0.06611064278954382	-0.00738426152708929	-0.1628078708633128	-0.1628078708633034	0.0009772470207386106	1.121558210943082e-05	-0.002885199268977088	0.0134584078601	-0.1813996187167634	0.0353045393889131	0.002378364805832625	-0.2095913110723473	0.03006173600016729	0.04301433260818151	0.3136277366689141	-36.92429552779494	-15.1962053957783	5.372554091047729	5.43285085418009	-733.302653267373	-82.47698057827417	-19.84886873865478	-0.2492698103569203	0.1423128089745673	0.281595284566494	-1.149330809515074	0.1686917937421595	-0.7982166664985618	1.47808613131898	-2.00161243133695	-2.00161243133691	0.03300486028703577	0.00884913088290936	-0.7261009625161456	-0.04879582031903858	-1.02797929111833e-08	9.900234853361085e-09	2.998610063858173e-08	9.507798498562582e-09	-2.620814022061852e-08	1.909090018389102e-09	-4.295272265995176e-09
1.01	0.1439447633915387	0.001953811479558945	0.8874992013173776	0.4078429023567036	-0.3399600445010544	-0.1485468995266227	-0.9599301534145134	0.6401292893518805	0.6401292893519133	-0.1745086382744943	-0.1745300673125572	0.1282719334378448	-0.004817413018749947	0.1215818338154072	0.0353934338242485	0.04255894285909364	-0.3036616562429266	0.01360706924792366	-0.07415115400245503	0.007613803252904097	-0.1826480301577455	-0.1826480301577404	0.001442931081961747	3.013863169140226e-05	-0.0100678700420324	0.01303764655388995	-0.1807099275392761	0.03529393555425031	0.002346178982903265	-0.2092306344679987	0.02992893161029242	0.04296318707690736	0.3133298111071223	-36.9536685753018	-15.17838785899488	5.380608230236578	5.33333161239262	-733.1551300533241	-82.49296843082466	-19.89988268428394	-0.2735732506098982	0.1458436184645912	0.2744645496610836	-1.105762902019185	0.1739432256155975	-0.8058900209769133	1.518256069118181	-1.97245317862411	-1.972453178624817	0.05252347360088457	-0.002125329360215029	-0.7129620913324066	-0.03844275575288564	-1.219323027575045e-08	8.610803512047148e-09	3.570109109743474e-08	1.075385191224887e-08	-2.893897394742204e-08	-1.025330018666367e-09	-5.309676531335524e-09
1.02	0.1451467895294655	0.002315106864286689	0.8879384784082867	0.4047509937610417	-0.3398153784187631	-0.149328434057886	-0.9597777601549801	0.6382040690392771	0.6382040690391803	-0.1744920182469528	-0.1745297609506235	0.1281355727073095	-0.00468909495084981	0.1187974705304477	0.03687201079816167	0.04528880306318673	-0.314683939018147	0.01532547109367404	-0.08214853210694857	0.02291544474404349	-0.2023776094572841	-0.2023776094572838	0.001875546925619285	2.749282702981432e-05	-0.0171950190803754	0.01262782644844204	-0.1800202363617935	0.03528333171957616	0.002313993160040528	-0.2088699578636617	0.02979612722041252	0.04291204154561771	0.3130318855453326	-36.99338024051173	-15.15871005925423	5.388308467857136	5.266569232899777	-733.1502742719123	-82.51358376158828	-19.95645557991309	-0.2803839494862422	0.1499712459929491	0.2723422264394343	-1.105993384725052	0.1678456407434802	-0.7895900448150747	1.538801473547662	-1.979496432358134	-1.979496432358146	0.0263912167739095	0.004535360034135133	-0.7149966155737678	-0.04660758016665951	-1.389244669289907e-08	8.035853402735522e-09	3.988963387744919e-08	1.215078426285778e-08	-3.191023124078325e-08	-3.228725047640901e-09	-5.989480726559768e-09
1.03	0.1463202128143317	0.002691448531860305	0.8884048408413011	0.4015497945809359	-0.3396535196852208	-0.1501897177556187	-0.9594705680804608	0.6360820325443868	0.6360820325443742	-0.1744712220357674	-0.1745295384776586	0.1279282924732773	-0.004564761536801834	0.1158630375195809	0.0384096961039839	0.04797785465800269	-0.3255353462261799	0.01704867474016364	-0.09010081835352168	0.03860041884230943	-0.2220192932765682	-0.222019293276563	0.002280097035833296	1.821235831009825e-05	-0.02424456178720853	0.01224663511029666	-0.1795162413680352	0.03532692406156643	0.002285812226428336	-0.2083294722572651	0.02968727316609223	0.04289482467930399	0.3129573037348003	-37.02269743294208	-15.15837477695247	5.402276358780538	5.085685832875798	-733.1907404218631	-82.54760742211685	-20.01846850076342	-0.3035962207769486	0.1576758991326739	0.2663052989174896	-1.071633439531577	0.1749122028915236	-0.7969454211494127	1.594962680364292	-1.954943582817745	-1.954943582817031	0.04694991044139564	-0.003469689894038657	-0.6974640110102347	-0.0327142377660766	-1.558947718201282e-08	7.468193918240251e-09	4.406260066074078e-08	1.354925619445569e-08	-3.488394183584403e-08	-5.424660637757461e-09	-6.665870635354254e-09
